<?xml version="1.0" encoding="UTF-8"?>
<svg xmlns="http://www.w3.org/2000/svg" id="Smart_control" data-name="Smart control" viewBox="0 0 64 64" width="512" height="512"><path d="M62,36A13.988,13.988,0,0,0,39,25.29,13.919,13.919,0,0,0,30,22V10a3.009,3.009,0,0,0-3-3H9a3.009,3.009,0,0,0-3,3v7.81L2.2,27.29a3.237,3.237,0,0,0-.2,1.1V38.67a4.964,4.964,0,0,0,1,3l.66.88a5.044,5.044,0,0,1,.93,3.87L3.01,60.89a1.012,1.012,0,0,0,.25.78A1,1,0,0,0,4,62H15a.981.981,0,0,0,.75-.34.968.968,0,0,0,.24-.78L14.12,45.62a1.02,1.02,0,0,1,.16-.74l.59-.88h3.52a27.067,27.067,0,0,0,2.01,3H17v2h5.07C27.97,55.57,36.44,60.37,39,60.37c2.6,0,11.09-4.73,16.99-11.37H61V47H57.64C60.22,43.61,62,39.84,62,36Zm-49.71.71.54.54a2.51,2.51,0,0,1,.31.35c0,.01.01.01.02.01l-.01.01A3.983,3.983,0,0,1,14,40.07v.42a3.993,3.993,0,0,1-.67,2.22l-.71,1.06a2.962,2.962,0,0,0-.47,2.14L13.87,60H5.12L6.57,46.7a7.07,7.07,0,0,0-1.31-5.35l-.66-.88a3.018,3.018,0,0,1-.6-1.8V28.39a.986.986,0,0,1,.07-.38L6,23.19v6.4A2.016,2.016,0,0,0,6.58,31l1.16,1.16a2.023,2.023,0,0,0,2.45.3l1.32-.8,1.81-1.08a.809.809,0,0,1,.97.13.788.788,0,0,1,.12.99l-2.27,3.79A1.014,1.014,0,0,0,12.29,36.71ZM14.41,36c-.05-.05-.1-.1-.15-.16l1.87-3.11a2.814,2.814,0,0,0-.42-3.44,2.883,2.883,0,0,0-3.43-.42l-.28.17V13H24V36Zm1.38,6A5.854,5.854,0,0,0,16,40.49v-.42A6.07,6.07,0,0,0,15.62,38H25a1,1,0,0,0,1-1V12a1,1,0,0,0-1-1H11a1,1,0,0,0-1,1V30.23l-.84.51L8,29.59V10A1,1,0,0,1,9,9H27a1,1,0,0,1,1,1V41a1,1,0,0,1-1,1ZM39,58.37c-1.59,0-8.67-3.79-14.2-9.37H31a.987.987,0,0,0,.91-.59l2.96-6.65,4.18,12.56A1,1,0,0,0,40,55h.04a1.012,1.012,0,0,0,.93-.76L44.73,39.2l1.28,8.94A1,1,0,0,0,47,49h6.22C47.76,54.51,40.71,58.37,39,58.37ZM55.06,47H47.87L45.99,33.86a1.012,1.012,0,0,0-.94-.86,1,1,0,0,0-1.02.76L39.86,50.43,35.95,38.68a1,1,0,0,0-.9-.68,1.036,1.036,0,0,0-.96.59L30.35,47H22.96a26.57,26.57,0,0,1-2.24-3H27a3.009,3.009,0,0,0,3-3V24a11.982,11.982,0,0,1,8.31,3.35,1,1,0,0,0,1.38,0A11.995,11.995,0,0,1,60,36C60,39.84,57.92,43.65,55.06,47Z"/><path d="M22,21a4,4,0,1,0-4,4A4,4,0,0,0,22,21Zm-6,0a2,2,0,1,1,2,2A2,2,0,0,1,16,21Z"/><path d="M43.586,16.586a2,2,0,1,0,2.828,0A2,2,0,0,0,43.586,16.586Z"/><path d="M49.243,13.757a6.007,6.007,0,0,0-8.486,0l1.414,1.414a4.007,4.007,0,0,1,5.658,0Z"/><path d="M52.071,10.929a10,10,0,0,0-14.142,0l1.414,1.414a8,8,0,0,1,11.314,0Z"/><path d="M53.485,9.515,54.9,8.1a14.014,14.014,0,0,0-19.8,0l1.414,1.414A12.013,12.013,0,0,1,53.485,9.515Z"/></svg>
