<?xml version="1.0"?>
<svg xmlns="http://www.w3.org/2000/svg" viewBox="0 0 64 64" width="512" height="512"><g id="Outlines"><g><path d="M28,50a3,3,0,0,0,0,6h8a3,3,0,0,0,0-6Zm9,3a1,1,0,0,1-1,1H28a1,1,0,0,1,0-2h8A1,1,0,0,1,37,53Z"/><circle cx="18" cy="7" r="1"/><circle cx="22" cy="7" r="1"/><path d="M35,13a1,1,0,0,0-1,1v8a4.951,4.951,0,0,0,6.157,4.851l.678,12.209a1.819,1.819,0,0,1-.5,1.365,1.88,1.88,0,0,1-2.67,0,1.819,1.819,0,0,1-.5-1.365l.556-10a1,1,0,1,0-2-.112l-.556,10a3.838,3.838,0,1,0,7.664,0l-.725-13.063A4.973,4.973,0,0,0,44,22V14a1,1,0,0,0-2,0v3H40V14a1,1,0,0,0-2,0v3H36V14A1,1,0,0,0,35,13Zm7,9a3,3,0,0,1-6,0V19h6Z"/><path d="M23,13a1,1,0,0,0-1,1V39.6a3.4,3.4,0,1,0,6.8-.261L28.064,29.8A3,3,0,0,0,30,27V20A7.008,7.008,0,0,0,23,13Zm3.434,27.55A1.391,1.391,0,0,1,25.4,41,1.406,1.406,0,0,1,24,39.6V30h2.074l.73,9.488A1.39,1.39,0,0,1,26.434,40.55ZM28,27a1,1,0,0,1-1,1H24V15.1A5.008,5.008,0,0,1,28,20Z"/><path d="M28,46a1,1,0,0,0,1,1h6a1,1,0,0,0,0-2H29A1,1,0,0,0,28,46Z"/><path d="M50,39a1,1,0,0,0-1,1V57a3,3,0,0,1-3,3H18a3,3,0,0,1-3-3V25a1,1,0,0,0-2,0V57a5.006,5.006,0,0,0,5,5H46a5.006,5.006,0,0,0,5-5V40A1,1,0,0,0,50,39Z"/><path d="M46,2H18a5.006,5.006,0,0,0-5,5V21a1,1,0,0,0,2,0V7a3,3,0,0,1,3-3H46a3,3,0,0,1,3,3V36a1,1,0,0,0,2,0V7A5.006,5.006,0,0,0,46,2Z"/></g></g></svg>
